<svg xmlns="http://www.w3.org/2000/svg" viewBox="0 0 380 508" fill="none" stroke="white" stroke-width="2">
<path d="M 143,290 L 142,291 L 141,291 L 140,292 L 139,292 L 138,293 L 137,293 L 136,294 L 134,294 L 133,295 L 132,295 L 131,296 L 130,296 L 129,297 L 128,297 L 127,298 L 126,298 L 125,299 L 124,299 L 123,300 L 122,300 L 121,301 L 120,301 L 119,302 L 118,302 L 117,303 L 117,304 L 116,305 L 116,308 L 115,309 L 115,312 L 114,313 L 114,315 L 113,316 L 113,319 L 112,320 L 112,323 L 111,324 L 111,326 L 110,327 L 110,330 L 109,331 L 109,334 L 108,335 L 108,337 L 107,338 L 107,341 L 106,342 L 106,345 L 105,346 L 105,348 L 104,349 L 104,352 L 103,353 L 103,356 L 102,357 L 102,359 L 101,360 L 101,363 L 100,364 L 100,367 L 99,368 L 99,370 L 98,371 L 98,374 L 97,375 L 97,378 L 96,379 L 96,381 L 95,382 L 95,385 L 94,386 L 94,389 L 93,390 L 93,392 L 92,393 L 92,396 L 91,397 L 91,400 L 90,401 L 90,403 L 89,404 L 89,407 L 88,408 L 88,411 L 87,412 L 87,414 L 86,415 L 86,419 L 85,420 L 85,425 L 86,426 L 87,426 L 90,429 L 91,429 L 93,431 L 94,431 L 97,434 L 98,434 L 100,436 L 101,436 L 104,439 L 105,439 L 107,441 L 108,441 L 111,444 L 112,444 L 114,446 L 115,446 L 115,445 L 116,444 L 116,440 L 117,439 L 117,434 L 118,433 L 118,429 L 119,428 L 119,424 L 120,423 L 120,418 L 121,417 L 121,413 L 122,412 L 122,408 L 123,407 L 123,402 L 124,401 L 124,397 L 125,396 L 125,391 L 126,390 L 126,386 L 127,385 L 127,381 L 128,380 L 128,375 L 129,374 L 129,370 L 130,369 L 130,364 L 131,363 L 131,359 L 132,358 L 132,354 L 133,353 L 133,348 L 134,347 L 134,343 L 135,342 L 135,338 L 136,337 L 136,332 L 137,331 L 137,327 L 138,326 L 138,321 L 139,320 L 139,316 L 140,315 L 140,311 L 141,310 L 141,305 L 142,304 L 142,300 L 143,299 L 143,295 L 144,294 L 144,290 Z" />
<path d="M 234,289 L 235,290 L 235,295 L 236,296 L 236,300 L 237,301 L 237,306 L 238,307 L 238,312 L 239,313 L 239,318 L 240,319 L 240,324 L 241,325 L 241,329 L 242,330 L 242,335 L 243,336 L 243,341 L 244,342 L 244,347 L 245,348 L 245,353 L 246,354 L 246,359 L 247,360 L 247,365 L 248,366 L 248,370 L 249,371 L 249,376 L 250,377 L 250,382 L 251,383 L 251,388 L 252,389 L 252,394 L 253,395 L 253,400 L 254,401 L 254,406 L 255,407 L 255,411 L 256,412 L 256,417 L 257,418 L 257,423 L 258,424 L 258,429 L 259,430 L 259,435 L 260,436 L 260,441 L 261,442 L 261,447 L 262,446 L 263,446 L 265,444 L 266,444 L 269,441 L 270,441 L 272,439 L 273,439 L 275,437 L 276,437 L 278,435 L 279,435 L 281,433 L 282,433 L 284,431 L 285,431 L 287,429 L 288,429 L 290,427 L 291,427 L 293,425 L 294,425 L 293,424 L 293,422 L 292,421 L 292,420 L 291,419 L 291,417 L 290,416 L 290,415 L 289,414 L 289,411 L 288,410 L 288,407 L 287,406 L 287,403 L 286,402 L 286,399 L 285,398 L 285,395 L 284,394 L 284,391 L 283,390 L 283,386 L 282,385 L 282,382 L 281,381 L 281,378 L 280,377 L 280,374 L 279,373 L 279,370 L 278,369 L 278,366 L 277,365 L 277,362 L 276,361 L 276,358 L 275,357 L 275,354 L 274,353 L 274,350 L 273,349 L 273,346 L 272,345 L 272,342 L 271,341 L 271,338 L 270,337 L 270,334 L 269,333 L 269,330 L 268,329 L 268,326 L 267,325 L 267,322 L 266,321 L 266,318 L 265,317 L 265,314 L 264,313 L 264,310 L 263,309 L 263,306 L 262,305 L 262,303 L 261,302 L 260,302 L 259,301 L 258,301 L 257,300 L 256,300 L 255,299 L 254,299 L 253,298 L 252,298 L 251,297 L 250,297 L 249,296 L 248,296 L 247,295 L 246,295 L 245,294 L 244,294 L 243,293 L 242,293 L 241,292 L 239,292 L 238,291 L 237,291 L 236,290 L 235,290 Z" />
<path d="M 188,268 L 187,269 L 186,269 L 185,270 L 184,270 L 183,271 L 182,271 L 181,272 L 180,272 L 179,273 L 178,273 L 177,274 L 176,274 L 175,275 L 174,275 L 173,276 L 172,276 L 171,277 L 170,277 L 169,278 L 167,278 L 166,279 L 165,279 L 164,280 L 163,280 L 162,281 L 161,281 L 160,282 L 159,282 L 158,283 L 157,283 L 155,285 L 155,290 L 154,291 L 154,295 L 153,296 L 153,300 L 152,301 L 152,306 L 151,307 L 151,311 L 150,312 L 150,316 L 149,317 L 149,322 L 148,323 L 148,327 L 147,328 L 147,333 L 146,334 L 146,338 L 145,339 L 145,343 L 144,344 L 144,349 L 143,350 L 143,354 L 142,355 L 142,360 L 141,361 L 141,365 L 140,366 L 140,370 L 139,371 L 139,376 L 138,377 L 138,381 L 137,382 L 137,386 L 136,387 L 136,392 L 135,393 L 135,397 L 134,398 L 134,403 L 133,404 L 133,408 L 132,409 L 132,413 L 131,414 L 131,419 L 130,420 L 130,424 L 129,425 L 129,429 L 128,430 L 128,435 L 127,436 L 127,440 L 126,441 L 126,446 L 125,447 L 125,451 L 124,452 L 124,456 L 123,457 L 123,460 L 122,461 L 124,463 L 125,463 L 126,464 L 127,464 L 128,465 L 129,465 L 130,466 L 131,466 L 132,467 L 133,467 L 135,469 L 136,469 L 137,470 L 138,470 L 139,471 L 140,471 L 141,472 L 142,472 L 143,473 L 144,473 L 145,474 L 146,474 L 148,476 L 149,476 L 150,477 L 151,477 L 152,478 L 153,478 L 154,479 L 155,479 L 156,480 L 157,480 L 159,482 L 160,482 L 161,483 L 162,483 L 163,484 L 164,484 L 165,485 L 166,485 L 167,486 L 168,486 L 169,487 L 170,487 L 172,489 L 173,489 L 174,490 L 175,490 L 176,491 L 177,491 L 178,492 L 179,492 L 180,493 L 181,493 L 183,495 L 184,495 L 185,496 L 186,496 L 187,497 L 188,497 L 189,498 L 190,498 L 191,497 L 192,497 L 194,495 L 195,495 L 196,494 L 197,494 L 198,493 L 199,493 L 201,491 L 202,491 L 203,490 L 204,490 L 205,489 L 206,489 L 207,488 L 208,488 L 210,486 L 211,486 L 212,485 L 213,485 L 214,484 L 215,484 L 217,482 L 218,482 L 219,481 L 220,481 L 221,480 L 222,480 L 224,478 L 225,478 L 226,477 L 227,477 L 228,476 L 229,476 L 230,475 L 231,475 L 233,473 L 234,473 L 235,472 L 236,472 L 237,471 L 238,471 L 240,469 L 241,469 L 242,468 L 243,468 L 244,467 L 245,467 L 246,466 L 247,466 L 249,464 L 250,464 L 251,463 L 252,463 L 253,462 L 254,462 L 254,460 L 253,459 L 253,456 L 252,455 L 252,450 L 251,449 L 251,444 L 250,443 L 250,438 L 249,437 L 249,432 L 248,431 L 248,426 L 247,425 L 247,420 L 246,419 L 246,414 L 245,413 L 245,408 L 244,407 L 244,402 L 243,401 L 243,396 L 242,395 L 242,391 L 241,390 L 241,385 L 240,384 L 240,379 L 239,378 L 239,373 L 238,372 L 238,367 L 237,366 L 237,361 L 236,360 L 236,355 L 235,354 L 235,350 L 234,349 L 234,344 L 233,343 L 233,338 L 232,337 L 232,332 L 231,331 L 231,326 L 230,325 L 230,320 L 229,319 L 229,315 L 228,314 L 228,309 L 227,308 L 227,303 L 226,302 L 226,297 L 225,296 L 225,291 L 224,290 L 224,286 L 223,285 L 223,284 L 222,283 L 221,283 L 220,282 L 219,282 L 218,281 L 217,281 L 216,280 L 215,280 L 214,279 L 213,279 L 212,278 L 211,278 L 210,277 L 209,277 L 208,276 L 206,276 L 205,275 L 204,275 L 203,274 L 202,274 L 201,273 L 200,273 L 199,272 L 198,272 L 197,271 L 196,271 L 195,270 L 194,270 L 193,269 L 192,269 L 191,268 Z" />
<path d="M 299,240 L 299,242 L 298,243 L 298,244 L 297,245 L 297,247 L 296,248 L 296,249 L 295,250 L 295,252 L 294,253 L 294,254 L 293,255 L 293,257 L 292,258 L 292,259 L 291,260 L 291,261 L 290,262 L 290,263 L 289,264 L 289,265 L 288,266 L 288,267 L 287,268 L 287,269 L 286,270 L 286,271 L 285,272 L 285,273 L 284,274 L 284,275 L 283,276 L 283,277 L 282,278 L 282,279 L 281,280 L 281,281 L 280,282 L 280,283 L 279,284 L 279,285 L 278,286 L 278,287 L 277,288 L 277,289 L 276,290 L 276,291 L 275,292 L 275,293 L 274,294 L 274,295 L 273,296 L 273,297 L 272,298 L 272,303 L 273,304 L 273,307 L 274,308 L 274,311 L 275,312 L 275,315 L 276,316 L 276,319 L 277,320 L 277,323 L 278,324 L 278,327 L 279,328 L 279,331 L 280,332 L 280,335 L 281,336 L 281,339 L 282,340 L 282,343 L 283,344 L 283,347 L 284,348 L 284,351 L 285,352 L 285,355 L 286,356 L 286,359 L 287,360 L 287,363 L 288,364 L 288,367 L 289,368 L 289,371 L 290,372 L 290,375 L 291,376 L 291,379 L 292,380 L 292,383 L 293,384 L 293,387 L 294,388 L 294,391 L 295,392 L 295,395 L 296,396 L 296,399 L 296,398 L 297,397 L 297,396 L 298,395 L 298,394 L 299,393 L 299,392 L 300,391 L 300,390 L 301,389 L 301,388 L 302,387 L 302,386 L 303,385 L 303,384 L 305,382 L 305,381 L 306,380 L 306,379 L 307,378 L 307,377 L 308,376 L 308,375 L 309,374 L 309,373 L 310,372 L 310,371 L 311,370 L 311,369 L 312,368 L 312,367 L 313,366 L 313,365 L 314,364 L 314,363 L 315,362 L 315,361 L 316,360 L 316,359 L 317,358 L 317,357 L 318,356 L 318,355 L 319,354 L 319,353 L 320,352 L 320,351 L 321,350 L 321,348 L 322,347 L 322,346 L 323,345 L 323,344 L 324,343 L 324,342 L 325,341 L 325,340 L 326,339 L 326,338 L 327,337 L 327,336 L 328,335 L 327,334 L 327,332 L 326,331 L 326,329 L 325,328 L 325,326 L 324,325 L 324,322 L 323,321 L 323,319 L 322,318 L 322,316 L 321,315 L 321,309 L 320,308 L 320,306 L 319,305 L 319,303 L 318,302 L 318,299 L 317,298 L 317,296 L 316,295 L 316,293 L 315,292 L 315,290 L 314,289 L 314,286 L 313,285 L 313,283 L 312,282 L 312,280 L 311,279 L 311,277 L 310,276 L 310,273 L 309,272 L 309,270 L 308,269 L 308,267 L 307,266 L 307,263 L 306,262 L 306,260 L 305,259 L 305,257 L 304,256 L 304,254 L 303,253 L 303,250 L 302,249 L 302,247 L 301,246 L 301,244 L 300,243 L 300,241 Z" />
<path d="M 75,237 L 75,240 L 74,241 L 74,243 L 73,244 L 73,247 L 72,248 L 72,251 L 71,252 L 71,255 L 70,256 L 70,259 L 69,260 L 69,263 L 68,264 L 68,267 L 67,268 L 67,271 L 66,272 L 66,275 L 65,276 L 65,279 L 64,280 L 64,283 L 63,284 L 63,287 L 62,288 L 62,291 L 61,292 L 61,294 L 60,295 L 60,298 L 59,299 L 59,302 L 58,303 L 58,306 L 57,307 L 57,310 L 56,311 L 56,314 L 55,315 L 55,318 L 54,319 L 54,322 L 53,323 L 53,326 L 52,327 L 52,330 L 51,331 L 51,334 L 50,335 L 51,336 L 51,337 L 52,338 L 52,339 L 53,340 L 53,341 L 54,342 L 54,343 L 55,344 L 55,345 L 56,346 L 56,348 L 57,349 L 57,350 L 58,351 L 58,352 L 59,353 L 59,354 L 60,355 L 60,356 L 61,357 L 61,358 L 62,359 L 62,360 L 63,361 L 63,362 L 64,363 L 64,364 L 65,365 L 65,366 L 66,367 L 66,368 L 67,369 L 67,371 L 68,372 L 68,373 L 69,374 L 69,375 L 70,376 L 70,377 L 71,378 L 71,379 L 72,380 L 72,381 L 73,382 L 73,383 L 74,384 L 74,385 L 75,386 L 75,387 L 76,388 L 76,389 L 77,390 L 77,391 L 78,392 L 78,394 L 79,395 L 79,396 L 80,397 L 80,398 L 81,398 L 81,395 L 82,394 L 82,391 L 83,390 L 83,388 L 84,387 L 84,384 L 85,383 L 85,380 L 86,379 L 86,377 L 87,376 L 87,373 L 88,372 L 88,369 L 89,368 L 89,366 L 90,365 L 90,362 L 91,361 L 91,358 L 92,357 L 92,355 L 93,354 L 93,351 L 94,350 L 94,347 L 95,346 L 95,344 L 96,343 L 96,340 L 97,339 L 97,336 L 98,335 L 98,333 L 99,332 L 99,329 L 100,328 L 100,325 L 101,324 L 101,322 L 102,321 L 102,318 L 103,317 L 103,314 L 104,313 L 104,311 L 105,310 L 105,307 L 106,306 L 106,303 L 107,302 L 107,298 L 106,297 L 106,296 L 105,295 L 105,294 L 104,293 L 104,292 L 103,291 L 103,290 L 102,289 L 102,288 L 101,287 L 101,286 L 100,285 L 100,284 L 99,283 L 99,282 L 98,281 L 98,280 L 97,279 L 97,278 L 96,277 L 96,276 L 95,275 L 95,274 L 94,273 L 94,272 L 93,271 L 93,270 L 92,269 L 92,268 L 91,267 L 91,266 L 90,265 L 90,264 L 89,263 L 89,262 L 88,261 L 88,260 L 87,259 L 87,258 L 86,257 L 86,256 L 85,255 L 85,254 L 84,253 L 84,252 L 82,250 L 82,249 L 81,248 L 81,247 L 79,245 L 79,244 L 78,243 L 78,242 L 76,240 L 76,239 L 75,238 Z" />
<path d="M 138,209 L 137,210 L 133,210 L 132,211 L 129,211 L 128,212 L 127,212 L 126,213 L 125,213 L 124,214 L 123,214 L 122,215 L 121,215 L 119,217 L 118,217 L 108,227 L 108,228 L 105,231 L 105,232 L 104,233 L 104,234 L 102,236 L 102,237 L 101,238 L 101,239 L 100,240 L 100,241 L 99,242 L 99,244 L 98,245 L 98,246 L 97,247 L 97,249 L 96,250 L 96,253 L 97,254 L 97,255 L 98,256 L 98,257 L 99,258 L 99,259 L 100,260 L 100,261 L 101,262 L 101,263 L 102,264 L 102,265 L 103,266 L 103,267 L 104,268 L 104,270 L 105,271 L 105,272 L 106,273 L 106,274 L 107,275 L 107,276 L 108,277 L 108,278 L 109,279 L 109,280 L 110,281 L 110,282 L 111,283 L 111,284 L 112,285 L 112,286 L 113,287 L 113,288 L 114,289 L 114,290 L 115,291 L 115,292 L 116,291 L 117,291 L 118,290 L 119,290 L 120,289 L 121,289 L 122,288 L 123,288 L 124,287 L 125,287 L 126,286 L 127,286 L 128,285 L 129,285 L 130,284 L 131,284 L 132,283 L 133,283 L 134,282 L 135,282 L 136,281 L 137,281 L 138,280 L 140,280 L 141,279 L 142,279 L 143,278 L 144,278 L 145,277 L 146,277 L 147,276 L 148,276 L 149,275 L 150,275 L 151,274 L 152,274 L 153,273 L 154,273 L 155,272 L 156,272 L 157,271 L 158,271 L 159,270 L 160,270 L 161,269 L 162,269 L 163,268 L 164,268 L 165,267 L 166,267 L 167,266 L 168,266 L 169,265 L 170,265 L 171,264 L 173,264 L 174,263 L 175,263 L 176,262 L 177,262 L 178,261 L 179,261 L 180,260 L 181,260 L 182,259 L 183,259 L 184,258 L 185,258 L 186,257 L 187,257 L 188,256 L 191,256 L 192,257 L 193,257 L 194,258 L 195,258 L 196,259 L 197,259 L 198,260 L 199,260 L 200,261 L 201,261 L 202,262 L 203,262 L 204,263 L 205,263 L 206,264 L 207,264 L 208,265 L 209,265 L 210,266 L 212,266 L 213,267 L 214,267 L 215,268 L 216,268 L 217,269 L 218,269 L 219,270 L 220,270 L 221,271 L 222,271 L 223,272 L 224,272 L 225,273 L 226,273 L 227,274 L 228,274 L 229,275 L 230,275 L 231,276 L 232,276 L 233,277 L 234,277 L 235,278 L 236,278 L 237,279 L 238,279 L 239,280 L 240,280 L 241,281 L 242,281 L 243,282 L 245,282 L 246,283 L 247,283 L 248,284 L 249,284 L 250,285 L 251,285 L 252,286 L 253,286 L 254,287 L 255,287 L 256,288 L 257,288 L 258,289 L 259,289 L 260,290 L 261,290 L 262,291 L 263,291 L 264,292 L 264,291 L 265,290 L 265,289 L 266,288 L 266,287 L 267,286 L 267,285 L 268,284 L 268,283 L 269,282 L 269,281 L 270,280 L 270,279 L 271,278 L 271,277 L 272,276 L 272,275 L 273,274 L 273,273 L 274,272 L 274,271 L 275,270 L 275,269 L 276,268 L 276,267 L 277,266 L 277,265 L 278,264 L 278,263 L 279,262 L 279,261 L 280,260 L 280,259 L 281,258 L 281,257 L 283,255 L 283,252 L 282,251 L 282,250 L 281,249 L 281,248 L 279,246 L 279,245 L 278,244 L 278,243 L 277,242 L 277,241 L 276,240 L 276,239 L 274,237 L 274,236 L 272,234 L 272,233 L 270,231 L 270,230 L 266,226 L 266,225 L 259,218 L 258,218 L 255,215 L 254,215 L 252,213 L 251,213 L 250,212 L 249,212 L 248,211 L 246,211 L 245,210 L 242,210 L 241,209 L 229,209 L 228,210 L 225,210 L 224,211 L 222,211 L 221,212 L 219,212 L 218,213 L 217,213 L 216,214 L 215,214 L 214,215 L 213,215 L 212,216 L 211,216 L 210,217 L 209,217 L 207,219 L 206,219 L 204,221 L 203,221 L 201,223 L 200,223 L 197,226 L 196,226 L 193,229 L 192,229 L 190,231 L 189,231 L 186,228 L 185,228 L 182,225 L 181,225 L 179,223 L 178,223 L 176,221 L 175,221 L 174,220 L 173,220 L 171,218 L 170,218 L 169,217 L 168,217 L 167,216 L 166,216 L 165,215 L 164,215 L 163,214 L 161,214 L 160,213 L 159,213 L 158,212 L 156,212 L 155,211 L 152,211 L 151,210 L 145,210 L 144,209 Z" />
<path d="M 178,80 L 177,81 L 166,81 L 165,82 L 158,82 L 157,83 L 152,83 L 151,84 L 147,84 L 146,85 L 142,85 L 141,86 L 138,86 L 137,87 L 134,87 L 133,88 L 130,88 L 129,89 L 127,89 L 126,90 L 124,90 L 123,91 L 120,91 L 119,92 L 117,92 L 116,93 L 115,93 L 114,94 L 112,94 L 111,95 L 109,95 L 108,96 L 107,96 L 106,97 L 104,97 L 103,98 L 102,98 L 101,99 L 100,99 L 99,100 L 97,100 L 96,101 L 95,101 L 94,102 L 93,102 L 92,103 L 91,103 L 90,104 L 89,104 L 88,105 L 87,105 L 85,107 L 84,107 L 83,108 L 82,108 L 80,110 L 79,110 L 78,111 L 78,223 L 80,225 L 80,226 L 81,227 L 81,228 L 83,230 L 83,231 L 84,232 L 84,233 L 86,235 L 86,236 L 87,237 L 87,238 L 89,240 L 89,241 L 89,240 L 90,239 L 90,237 L 91,236 L 91,235 L 92,234 L 92,233 L 93,232 L 93,231 L 95,229 L 95,228 L 96,227 L 96,226 L 98,224 L 98,223 L 101,220 L 101,219 L 112,208 L 113,208 L 115,206 L 116,206 L 118,204 L 119,204 L 120,203 L 121,203 L 122,202 L 124,202 L 125,201 L 127,201 L 128,200 L 131,200 L 132,199 L 138,199 L 139,198 L 143,198 L 144,199 L 151,199 L 152,200 L 156,200 L 157,201 L 159,201 L 160,202 L 162,202 L 163,203 L 165,203 L 166,204 L 167,204 L 168,205 L 169,205 L 170,206 L 171,206 L 172,207 L 173,207 L 174,208 L 175,208 L 176,209 L 177,209 L 179,211 L 180,211 L 182,213 L 183,213 L 185,215 L 186,215 L 188,217 L 191,217 L 193,215 L 194,215 L 197,212 L 198,212 L 200,210 L 201,210 L 203,208 L 204,208 L 205,207 L 206,207 L 207,206 L 208,206 L 209,205 L 210,205 L 211,204 L 212,204 L 213,203 L 214,203 L 215,202 L 216,202 L 217,201 L 219,201 L 220,200 L 222,200 L 223,199 L 227,199 L 228,198 L 242,198 L 243,199 L 246,199 L 247,200 L 249,200 L 250,201 L 252,201 L 253,202 L 254,202 L 255,203 L 256,203 L 258,205 L 259,205 L 261,207 L 262,207 L 266,211 L 267,211 L 272,216 L 272,217 L 277,222 L 277,223 L 280,226 L 280,227 L 282,229 L 282,230 L 283,231 L 283,232 L 285,234 L 285,235 L 286,236 L 286,237 L 288,239 L 288,240 L 289,239 L 289,238 L 290,237 L 290,235 L 291,234 L 291,233 L 292,232 L 292,230 L 293,229 L 293,228 L 294,227 L 294,225 L 295,224 L 295,111 L 293,109 L 292,109 L 290,107 L 289,107 L 288,106 L 287,106 L 286,105 L 285,105 L 283,103 L 282,103 L 281,102 L 280,102 L 279,101 L 278,101 L 277,100 L 276,100 L 275,99 L 274,99 L 273,98 L 271,98 L 270,97 L 269,97 L 268,96 L 267,96 L 266,95 L 265,95 L 264,94 L 262,94 L 261,93 L 259,93 L 258,92 L 257,92 L 256,91 L 254,91 L 253,90 L 251,90 L 250,89 L 248,89 L 247,88 L 244,88 L 243,87 L 240,87 L 239,86 L 236,86 L 235,85 L 232,85 L 231,84 L 227,84 L 226,83 L 221,83 L 220,82 L 214,82 L 213,81 L 203,81 L 202,80 Z" />
<path d="M 368,12 L 367,13 L 366,13 L 365,14 L 364,14 L 363,15 L 361,15 L 360,16 L 359,16 L 358,17 L 357,17 L 356,18 L 355,18 L 354,19 L 353,19 L 352,20 L 351,20 L 350,21 L 349,21 L 348,22 L 347,22 L 346,23 L 345,23 L 344,24 L 343,24 L 342,25 L 341,25 L 340,26 L 339,26 L 338,27 L 337,27 L 336,28 L 335,28 L 334,29 L 333,29 L 332,30 L 330,30 L 329,31 L 328,31 L 327,32 L 326,32 L 325,33 L 324,33 L 323,34 L 322,34 L 321,35 L 320,35 L 319,36 L 318,36 L 317,37 L 316,37 L 315,38 L 314,38 L 313,39 L 312,39 L 311,40 L 310,40 L 309,41 L 308,41 L 307,42 L 306,42 L 305,43 L 305,170 L 313,162 L 314,162 L 318,158 L 319,158 L 319,157 L 326,150 L 327,150 L 332,145 L 332,142 L 333,141 L 333,139 L 334,138 L 334,135 L 335,134 L 335,131 L 336,130 L 336,128 L 337,127 L 337,124 L 338,123 L 338,120 L 339,119 L 339,117 L 340,116 L 340,113 L 341,112 L 341,109 L 342,108 L 342,106 L 343,105 L 343,102 L 344,101 L 344,98 L 345,97 L 345,95 L 346,94 L 346,91 L 347,90 L 347,87 L 348,86 L 348,84 L 349,83 L 349,80 L 350,79 L 350,76 L 351,75 L 351,73 L 352,72 L 352,69 L 353,68 L 353,65 L 354,64 L 354,62 L 355,61 L 355,58 L 356,57 L 356,54 L 357,53 L 357,51 L 358,50 L 358,47 L 359,46 L 359,43 L 360,42 L 360,40 L 361,39 L 361,36 L 362,35 L 362,32 L 363,31 L 363,29 L 364,28 L 364,25 L 365,24 L 365,21 L 366,20 L 366,18 L 367,17 L 367,14 L 368,13 Z" />
<path d="M 10,12 L 10,14 L 11,15 L 11,18 L 12,19 L 12,22 L 13,23 L 13,26 L 14,27 L 14,30 L 15,31 L 15,34 L 16,35 L 16,37 L 17,38 L 17,41 L 18,42 L 18,45 L 19,46 L 19,49 L 20,50 L 20,53 L 21,54 L 21,57 L 22,58 L 22,61 L 23,62 L 23,65 L 24,66 L 24,69 L 25,70 L 25,73 L 26,74 L 26,77 L 27,78 L 27,81 L 28,82 L 28,85 L 29,86 L 29,89 L 30,90 L 30,93 L 31,94 L 31,97 L 32,98 L 32,101 L 33,102 L 33,105 L 34,106 L 34,109 L 35,110 L 35,112 L 36,113 L 36,116 L 37,117 L 37,120 L 38,121 L 38,124 L 39,125 L 39,128 L 40,129 L 40,132 L 41,133 L 41,136 L 42,137 L 42,139 L 43,140 L 43,143 L 44,144 L 44,145 L 68,169 L 68,42 L 67,42 L 66,41 L 65,41 L 64,40 L 63,40 L 62,39 L 61,39 L 60,38 L 59,38 L 58,37 L 57,37 L 55,35 L 54,35 L 53,34 L 52,34 L 51,33 L 50,33 L 49,32 L 48,32 L 47,31 L 46,31 L 45,30 L 44,30 L 43,29 L 42,29 L 41,28 L 40,28 L 39,27 L 38,27 L 37,26 L 36,26 L 34,24 L 33,24 L 32,23 L 31,23 L 30,22 L 29,22 L 28,21 L 27,21 L 26,20 L 25,20 L 24,19 L 23,19 L 22,18 L 21,18 L 20,17 L 19,17 L 18,16 L 17,16 L 16,15 L 15,15 L 13,13 L 12,13 L 11,12 Z" />
<path d="M 0,12 L 0,507 L 184,507 L 183,507 L 182,506 L 181,506 L 180,505 L 179,505 L 177,503 L 176,503 L 175,502 L 174,502 L 173,501 L 172,501 L 171,500 L 170,500 L 169,499 L 168,499 L 167,498 L 166,498 L 164,496 L 163,496 L 162,495 L 161,495 L 160,494 L 159,494 L 158,493 L 157,493 L 156,492 L 155,492 L 153,490 L 152,490 L 151,489 L 150,489 L 149,488 L 148,488 L 147,487 L 146,487 L 145,486 L 144,486 L 143,485 L 142,485 L 140,483 L 139,483 L 138,482 L 137,482 L 136,481 L 135,481 L 134,480 L 133,480 L 132,479 L 131,479 L 129,477 L 128,477 L 127,476 L 126,476 L 125,475 L 124,475 L 123,474 L 122,474 L 121,473 L 120,473 L 118,471 L 117,471 L 116,470 L 115,470 L 114,469 L 113,469 L 112,468 L 111,468 L 110,467 L 110,464 L 111,463 L 111,461 L 112,460 L 112,457 L 111,457 L 109,455 L 108,455 L 105,452 L 104,452 L 102,450 L 101,450 L 98,447 L 97,447 L 94,444 L 93,444 L 91,442 L 90,442 L 87,439 L 86,439 L 84,437 L 83,437 L 80,434 L 79,434 L 77,432 L 76,432 L 74,430 L 74,424 L 75,423 L 75,419 L 76,418 L 76,412 L 75,411 L 75,410 L 74,409 L 74,408 L 73,407 L 73,406 L 72,405 L 72,404 L 71,403 L 71,402 L 70,401 L 70,400 L 69,399 L 69,398 L 68,397 L 68,396 L 67,395 L 67,394 L 66,393 L 66,391 L 65,390 L 65,389 L 64,388 L 64,387 L 63,386 L 63,385 L 62,384 L 62,383 L 61,382 L 61,381 L 60,380 L 60,379 L 59,378 L 59,377 L 58,376 L 58,375 L 57,374 L 57,373 L 56,372 L 56,371 L 55,370 L 55,368 L 54,367 L 54,366 L 53,365 L 53,364 L 52,363 L 52,362 L 51,361 L 51,360 L 50,359 L 50,358 L 49,357 L 49,356 L 48,355 L 48,354 L 47,353 L 47,352 L 46,351 L 46,350 L 45,349 L 45,348 L 44,347 L 44,345 L 43,344 L 43,343 L 42,342 L 42,341 L 41,340 L 41,339 L 40,338 L 40,333 L 41,332 L 41,329 L 42,328 L 42,325 L 43,324 L 43,321 L 44,320 L 44,317 L 45,316 L 45,313 L 46,312 L 46,309 L 47,308 L 47,305 L 48,304 L 48,301 L 49,300 L 49,298 L 50,297 L 50,294 L 51,293 L 51,290 L 52,289 L 52,286 L 53,285 L 53,282 L 54,281 L 54,278 L 55,277 L 55,274 L 56,273 L 56,270 L 57,269 L 57,266 L 58,265 L 58,262 L 59,261 L 59,258 L 60,257 L 60,254 L 61,253 L 61,250 L 62,249 L 62,247 L 63,246 L 63,243 L 64,242 L 64,239 L 65,238 L 65,235 L 66,234 L 66,231 L 67,230 L 67,227 L 68,226 L 68,184 L 35,151 L 35,150 L 34,149 L 34,146 L 33,145 L 33,142 L 32,141 L 32,138 L 31,137 L 31,134 L 30,133 L 30,130 L 29,129 L 29,126 L 28,125 L 28,123 L 27,122 L 27,119 L 26,118 L 26,115 L 25,114 L 25,111 L 24,110 L 24,107 L 23,106 L 23,103 L 22,102 L 22,99 L 21,98 L 21,95 L 20,94 L 20,91 L 19,90 L 19,87 L 18,86 L 18,83 L 17,82 L 17,79 L 16,78 L 16,75 L 15,74 L 15,71 L 14,70 L 14,67 L 13,66 L 13,63 L 12,62 L 12,59 L 11,58 L 11,55 L 10,54 L 10,51 L 9,50 L 9,47 L 8,46 L 8,44 L 7,43 L 7,40 L 6,39 L 6,36 L 5,35 L 5,32 L 4,31 L 4,28 L 3,27 L 3,24 L 2,23 L 2,20 L 1,19 L 1,16 L 0,15 Z" />
<path d="M 379,11 L 379,14 L 378,15 L 378,18 L 377,19 L 377,21 L 376,22 L 376,25 L 375,26 L 375,29 L 374,30 L 374,32 L 373,33 L 373,36 L 372,37 L 372,40 L 371,41 L 371,43 L 370,44 L 370,47 L 369,48 L 369,51 L 368,52 L 368,54 L 367,55 L 367,58 L 366,59 L 366,62 L 365,63 L 365,65 L 364,66 L 364,69 L 363,70 L 363,73 L 362,74 L 362,76 L 361,77 L 361,80 L 360,81 L 360,84 L 359,85 L 359,87 L 358,88 L 358,91 L 357,92 L 357,95 L 356,96 L 356,98 L 355,99 L 355,102 L 354,103 L 354,106 L 353,107 L 353,109 L 352,110 L 352,113 L 351,114 L 351,117 L 350,118 L 350,120 L 349,121 L 349,124 L 348,125 L 348,128 L 347,129 L 347,131 L 346,132 L 346,135 L 345,136 L 345,139 L 344,140 L 344,142 L 343,143 L 343,146 L 342,147 L 342,150 L 337,155 L 336,155 L 323,168 L 322,168 L 309,181 L 308,181 L 305,184 L 305,224 L 306,225 L 306,227 L 307,228 L 307,231 L 308,232 L 308,234 L 309,235 L 309,237 L 310,238 L 310,240 L 311,241 L 311,244 L 312,245 L 312,247 L 313,248 L 313,250 L 314,251 L 314,255 L 315,256 L 315,257 L 316,258 L 316,260 L 317,261 L 317,263 L 318,264 L 318,267 L 319,268 L 319,270 L 320,271 L 320,273 L 321,274 L 321,276 L 322,277 L 322,280 L 323,281 L 323,283 L 324,284 L 324,286 L 325,287 L 325,289 L 326,290 L 326,293 L 327,294 L 327,296 L 328,297 L 328,299 L 329,300 L 329,303 L 330,304 L 330,306 L 331,307 L 331,309 L 332,310 L 332,312 L 333,313 L 333,316 L 334,317 L 334,319 L 335,320 L 335,322 L 336,323 L 336,325 L 337,326 L 337,329 L 338,330 L 338,332 L 339,333 L 339,338 L 338,339 L 338,340 L 337,341 L 337,342 L 336,343 L 336,344 L 335,345 L 335,346 L 334,347 L 334,348 L 333,349 L 333,350 L 332,351 L 332,352 L 331,353 L 331,354 L 329,356 L 329,357 L 328,358 L 328,359 L 327,360 L 327,361 L 326,362 L 326,363 L 325,364 L 325,365 L 324,366 L 324,367 L 323,368 L 323,369 L 322,370 L 322,371 L 321,372 L 321,373 L 320,374 L 320,375 L 319,376 L 319,377 L 318,378 L 318,379 L 317,380 L 317,381 L 316,382 L 316,383 L 315,384 L 315,385 L 314,386 L 314,387 L 312,389 L 312,390 L 311,391 L 311,392 L 310,393 L 310,394 L 309,395 L 309,396 L 308,397 L 308,398 L 307,399 L 307,400 L 306,401 L 306,402 L 305,403 L 305,404 L 304,405 L 304,406 L 303,407 L 303,408 L 302,409 L 302,410 L 301,411 L 301,412 L 300,413 L 300,414 L 301,415 L 301,416 L 302,417 L 302,419 L 303,420 L 303,421 L 304,422 L 304,424 L 305,425 L 305,426 L 306,427 L 306,429 L 303,432 L 302,432 L 300,434 L 299,434 L 297,436 L 296,436 L 294,438 L 293,438 L 291,440 L 290,440 L 288,442 L 287,442 L 285,444 L 284,444 L 282,446 L 281,446 L 279,448 L 278,448 L 276,450 L 275,450 L 273,452 L 272,452 L 270,454 L 269,454 L 267,456 L 266,456 L 264,458 L 264,460 L 265,461 L 265,463 L 266,464 L 266,467 L 265,468 L 264,468 L 263,469 L 262,469 L 260,471 L 259,471 L 258,472 L 257,472 L 256,473 L 255,473 L 253,475 L 252,475 L 251,476 L 250,476 L 249,477 L 248,477 L 246,479 L 245,479 L 244,480 L 243,480 L 242,481 L 241,481 L 240,482 L 239,482 L 237,484 L 236,484 L 235,485 L 234,485 L 233,486 L 232,486 L 230,488 L 229,488 L 228,489 L 227,489 L 226,490 L 225,490 L 224,491 L 223,491 L 221,493 L 220,493 L 219,494 L 218,494 L 217,495 L 216,495 L 214,497 L 213,497 L 212,498 L 211,498 L 210,499 L 209,499 L 208,500 L 207,500 L 205,502 L 204,502 L 203,503 L 202,503 L 201,504 L 200,504 L 198,506 L 197,506 L 196,507 L 195,507 L 379,507 Z" />
<path d="M 8,0 L 9,0 L 10,1 L 11,1 L 12,2 L 13,2 L 14,3 L 15,3 L 16,4 L 17,4 L 19,6 L 20,6 L 21,7 L 22,7 L 23,8 L 24,8 L 25,9 L 26,9 L 27,10 L 28,10 L 29,11 L 30,11 L 31,12 L 32,12 L 33,13 L 34,13 L 35,14 L 36,14 L 37,15 L 38,15 L 40,17 L 41,17 L 42,18 L 43,18 L 44,19 L 45,19 L 46,20 L 47,20 L 48,21 L 49,21 L 50,22 L 51,22 L 52,23 L 53,23 L 54,24 L 55,24 L 56,25 L 57,25 L 58,26 L 59,26 L 60,27 L 61,27 L 63,29 L 64,29 L 65,30 L 66,30 L 67,31 L 68,31 L 69,32 L 70,32 L 71,33 L 72,33 L 73,34 L 74,34 L 75,35 L 76,35 L 78,37 L 78,99 L 79,99 L 81,97 L 82,97 L 83,96 L 84,96 L 85,95 L 86,95 L 87,94 L 88,94 L 89,93 L 90,93 L 91,92 L 92,92 L 93,91 L 94,91 L 95,90 L 97,90 L 98,89 L 99,89 L 100,88 L 101,88 L 102,87 L 104,87 L 105,86 L 107,86 L 108,85 L 109,85 L 110,84 L 112,84 L 113,83 L 115,83 L 116,82 L 118,82 L 119,81 L 121,81 L 122,80 L 125,80 L 126,79 L 128,79 L 129,78 L 132,78 L 133,77 L 136,77 L 137,76 L 140,76 L 141,75 L 145,75 L 146,74 L 151,74 L 152,73 L 157,73 L 158,72 L 165,72 L 166,71 L 178,71 L 179,70 L 200,70 L 201,71 L 213,71 L 214,72 L 220,72 L 221,73 L 227,73 L 228,74 L 232,74 L 233,75 L 236,75 L 237,76 L 240,76 L 241,77 L 244,77 L 245,78 L 248,78 L 249,79 L 251,79 L 252,80 L 254,80 L 255,81 L 257,81 L 258,82 L 260,82 L 261,83 L 263,83 L 264,84 L 265,84 L 266,85 L 268,85 L 269,86 L 270,86 L 271,87 L 272,87 L 273,88 L 275,88 L 276,89 L 277,89 L 278,90 L 279,90 L 280,91 L 281,91 L 282,92 L 283,92 L 284,93 L 285,93 L 286,94 L 287,94 L 289,96 L 290,96 L 291,97 L 292,97 L 293,98 L 294,98 L 295,99 L 295,37 L 297,35 L 298,35 L 299,34 L 300,34 L 301,33 L 303,33 L 304,32 L 305,32 L 306,31 L 307,31 L 308,30 L 309,30 L 310,29 L 311,29 L 312,28 L 313,28 L 314,27 L 315,27 L 316,26 L 317,26 L 319,24 L 320,24 L 321,23 L 322,23 L 323,22 L 324,22 L 325,21 L 326,21 L 327,20 L 328,20 L 329,19 L 330,19 L 331,18 L 332,18 L 333,17 L 335,17 L 336,16 L 337,16 L 338,15 L 339,15 L 340,14 L 341,14 L 342,13 L 343,13 L 344,12 L 345,12 L 346,11 L 347,11 L 348,10 L 349,10 L 350,9 L 351,9 L 352,8 L 353,8 L 354,7 L 355,7 L 356,6 L 357,6 L 358,5 L 359,5 L 360,4 L 361,4 L 362,3 L 363,3 L 364,2 L 366,2 L 367,1 L 368,1 L 369,0 L 370,0 Z" />
</svg>